<svg xmlns="http://www.w3.org/2000/svg" viewBox="175.4 306.5 729.8 372.2"><path fill="#E7E3DA" fill-rule="evenodd" d="M251.62 306.5L308 306.73L311.86 307.5L316.91 310.5L320 313.88L322.16 318L323.13 322L323.01 327L305.05 428.5L304.02 432L302 435.59L298.78 439L295.64 441L292.5 442.19L288.5 442.86L286 442.79L282 442.04L279.52 441L275.5 438.16L262.5 425.05L248.5 408.94L233.5 388.96L228.5 381.47L226.47 377.5L225.5 373.03L225.5 369.81L234.5 319.08L235.47 316.5L237.33 313.5L241.5 309.45L245.5 307.38ZM353.55 307L357 306.63L419.5 306.68L423.5 307.33L426 308.5L429 311.09L431 313.87L432.22 317.5L432.07 324L415.7 413.5L415.68 415.5L416.5 419.4L418.5 422.95L421.71 426L426 428.02L432 428.11L443.21 423.5L453.03 420.5L463.5 418.44L471.5 417.57L488.5 417.33L501.41 418.5L512 420.48L519 422.41L527.5 425.46L534 428.45L541 432.41L546.91 436.5L552.96 441.5L559 447.6L566 456.61L572.08 467L577 478.64L581.09 493.5L583 506L583.65 521.5L583 536.36L580.07 555L575.03 573L568 590.17L564 598L558.06 608L548 621.92L542 628.95L534.13 637L520 649.02L504.91 659L491.24 666L475.48 672L459.5 676.07L444 678.19L431.5 678.61L424 678.17L414.5 676.01L406.5 673.02L396.5 668.04L376.82 656.5L374 655.36L371 655.29L367.35 656.5L363.46 659.5L360.5 663.51L355 674.36L352.32 677L350 678.17L346 678.65L297.5 678.65L292.23 678L288.5 676.04L286.5 674.2L284.5 671.46L283.43 669L283.05 664L302.5 547.28L304.31 539L306.4 535.5L310 532.45L312.5 531.33L316 530.69L329.5 532.44L345 535.44L357.69 538.5L368.71 542.5L379.93 548.5L388.9 555.5L393 559.65L397 564.63L401.13 572.5L402.24 577.5L402 584.24L401.01 587.5L390.29 611.5L390.5 616.4L391.5 618.25L394.41 621L398.5 622.17L400.38 622L403 621.01L444.5 597.43L447 596.36L451 596.29L454 597.45L455.33 598.5L490.6 631L494 633.03L497 633.29L499 633.04L501 632.12L503 630.42L504.98 627L505.23 624.5L495.44 576L495.4 572L496.39 569.5L497.99 567.5L500.79 565.5L542.4 542L545.04 539L545.94 536L545.8 533.5L545.04 531L544.08 529.5L541.83 527.5L539.39 526.5L490.5 521.06L487.5 520.14L485.5 518.76L483.44 516L482.5 512.79L473.1 466L471.08 462.5L468 460.4L465 459.87L461.5 460.37L459.5 461.47L457.5 463.57L442 497.69L440 501.17L437.63 504L434 507.03L427.96 510L424 511.11L417.89 512L409 512.04L400.5 511.09L390.5 509.04L383.5 507.04L362 497.02L340.5 486.08L324.76 477L320.5 473.52L318.5 470.38L317.5 467.38L317.48 461.5L342.5 319.69L343.5 315.34L346.5 310.61L351.07 307.5ZM595.46 429.5L675.5 429.28L677.93 429.5L681 430.43L684.49 432.5L688 436.24L690.04 440.5L712.45 528.5L714.5 532.16L718.64 536L723.47 538L727 538.3L730.5 538.05L733.64 537L736.84 535L740 531.48L791.5 438.77L794.38 434.5L797.97 431.5L803.18 429.5L806.5 429.26L889 429.26L892 429.41L895.5 430.4L900.22 433.5L902.05 435.5L904.05 439L905.15 445L904.97 447.5L904 451.1L901 455.96L850 526.62L746 670.83L742.31 675L739.37 677L736.94 678L732 678.64L679.5 678.65L673.82 678L669.73 676L667.5 674.13L665.5 671.76L663.5 667.7L583.5 449.94L582.78 444.5L583.35 440.5L584.5 437.67L586.5 434.73L588.87 432.5L592.21 430.5ZM258.31 534L268 533.7L272 534.45L276 536.42L279 538.93L282 542.93L283.14 545.5L284.12 550.5L283.01 559.5L265.01 661L264 666L263.04 668.5L261 671.83L257.83 675L254.61 677L251.5 678.13L246.5 678.65L201.5 678.65L189 678.23L183.52 676L180.5 673.5L177.5 669.63L176.32 667L175.37 662L176.43 652.5L193.4 556.5L194.42 553L196.5 549.31L199.08 546.5L201.68 544.5L206.5 542.4L218 539.39L233 536.46L249.5 534.43Z"/></svg>
